<svg xmlns="http://www.w3.org/2000/svg" xmlns:xlink="http://www.w3.org/1999/xlink" version="1.1" x="0px" y="0px" viewBox="0 0 100 100" style="enable-background:new 0 0 100 100;" xml:space="preserve"><style type="text/css">
	.st0{fill:none;stroke:#000000;stroke-width:2;stroke-linecap:round;stroke-linejoin:round;stroke-miterlimit:10;}
	.st1{fill:none;stroke:#000000;stroke-width:2;stroke-miterlimit:10;}
</style><path d="M10.7,63.3c0.8,1.5,2.1,2.6,3.8,3c0.6,0.2,1.2,0.2,1.8,0.2c1.3,0,2.6-0.4,3.7-1.1l16.8-10.4l9,9L35.5,81  c-1,1.7-1.3,3.7-0.8,5.5c0.5,1.7,1.5,3,3,3.8h0l0.9,0.5c0.9,0.4,1.8,0.7,2.8,0.7c0.7,0,1.4-0.1,2.1-0.4c1.8-0.6,3.2-2,4-3.8  l10.8-24.9l1.9-3.6c0.1-0.2,0.1-0.5,0.1-0.8c-0.1-0.3-0.3-0.5-0.5-0.6l-2.6-1.3l2.2-3.8c0.9,0.2,1.8,0.3,2.7,0.3  c6.6,0,13-4.2,18.6-12.4c4.9-7.1,7.4-14.5,7.5-14.9c0.1-0.4,0-0.9-0.4-1.2c-0.4-0.3-0.9-0.2-1.2,0.1c-4.6,4-7.6,5.3-9.1,5.7  c0.7-9.8-3.8-18.1-3.9-18.2c-0.2-0.4-0.6-0.6-1-0.5c-0.4,0.1-0.7,0.4-0.8,0.8c-1.9,10.7-13.8,18.4-16.9,20.2c-1.1,0.5-2.1,1.2-3,2.1  c-2.1,2.1-3.1,4.8-3,7.6l-3.8,2.2l-1.3-2.6c-0.3-0.5-0.9-0.7-1.3-0.4l-3.6,1.9L13.7,53.5c-1.8,0.8-3.2,2.2-3.8,4  c-0.6,1.6-0.5,3.4,0.3,4.9L10.7,63.3C10.7,63.3,10.7,63.3,10.7,63.3z M45.6,86.5c-0.6,1.3-1.6,2.3-2.9,2.7c-1.1,0.4-2.3,0.3-3.3-0.2  l-0.9-0.5c-1-0.5-1.7-1.4-2-2.6c-0.4-1.3-0.1-2.7,0.6-3.9l13.8-22.4l5.1,2.7L45.6,86.5z M57.9,58.7l-1,1.8l-5-2.6l1-1.8L57.9,58.7z   M84.8,28c-2.8,6.4-9.6,19.7-19.7,22.1c0.3-0.2,0.6-0.4,0.8-0.7c7.2-5.3,10.3-11.6,11.2-17.6C78.4,31.7,80.9,30.9,84.8,28z M72.9,15  c2.2,5.3,5.9,18.2-3.5,28.7c0.7-3.3-0.2-7-2.8-9.6c-1.9-1.9-4.3-2.9-6.7-3C64.3,27.9,70.5,22.3,72.9,15z M53.2,35.6  c0.5-0.5,1-0.9,1.6-1.2c0,0,0.1,0,0.1,0c0.1,0,0.4-0.2,0.8-0.5c3.1-1.4,6.9-0.8,9.4,1.7c3.3,3.3,3.3,8.7,0,11.9  c-0.1,0.1-0.3,0.3-0.5,0.4c0,0,0,0,0,0c0,0,0,0,0,0c-3.3,2.8-8.3,2.7-11.5-0.4C49.9,44.2,49.9,38.9,53.2,35.6z M47.1,48.1l-1.3-2.4  l3.2-1.8c0.4,1.9,1.3,3.6,2.8,5.1c1.5,1.5,3.5,2.5,5.5,2.9l-1.9,3.4l-2.4-1.3c-0.5-0.3-1.1-0.1-1.3,0.4l-1.9,3.6l-2.8,4.6l-8.3-8.3  l4.6-2.8l3.6-1.9C47.2,49.2,47.4,48.6,47.1,48.1z M42.3,43.1l2.6,5l-1.8,1l-2.6-5L42.3,43.1z M11.8,58.2c0.4-1.3,1.4-2.3,2.7-2.9  l24.1-10.4l2.7,5.1L18.9,63.8c-1.2,0.7-2.6,0.9-3.9,0.6c-1.1-0.3-2.1-1-2.6-2L12,61.5C11.5,60.5,11.4,59.3,11.8,58.2z"/><path d="M59.2,46.3c1.3,0,2.5-0.5,3.4-1.4s1.4-2.1,1.4-3.4c0-1.3-0.5-2.5-1.4-3.4s-2.1-1.4-3.4-1.4s-2.5,0.5-3.4,1.4  c-1.9,1.9-1.9,4.9,0,6.8C56.7,45.8,57.9,46.3,59.2,46.3z M57.2,39.6c0.5-0.5,1.2-0.8,2-0.8c0.7,0,1.4,0.3,2,0.8  c0.5,0.5,0.8,1.2,0.8,2c0,0.7-0.3,1.4-0.8,2c-1,1-2.9,1-3.9,0C56.1,42.4,56.1,40.7,57.2,39.6z"/></svg>
