<svg xmlns="http://www.w3.org/2000/svg" xmlns:xlink="http://www.w3.org/1999/xlink" version="1.1" x="0px" y="0px" viewBox="0 0 100 100" style="enable-background:new 0 0 100 100;" xml:space="preserve"><path d="M50,20c-16.5,0-30,13.5-30,30s13.5,30,30,30s30-13.5,30-30S66.5,20,50,20z M50,78.8c-15.9,0-28.8-12.9-28.8-28.8  S34.1,21.2,50,21.2S78.8,34.1,78.8,50S65.9,78.8,50,78.8z M50,25.3c-13.6,0-24.7,11.1-24.7,24.7S36.4,74.7,50,74.7  S74.7,63.6,74.7,50S63.6,25.3,50,25.3z M50,73.4c-12.9,0-23.4-10.5-23.4-23.4S37.1,26.6,50,26.6S73.4,37.1,73.4,50  S62.9,73.4,50,73.4z M55.9,51.4c-1.4-1.3-3.2-2-5.2-2.2V36.6c1.6,0.1,3.2,0.8,4.4,1.8l0.8-0.9c-1.4-1.3-3.2-2-5.2-2.2v-2.2h-1.2v2.2  c-2,0.1-3.9,0.9-5.4,2.2c-1.6,1.4-2.5,3.3-2.5,5.4s0.9,3.9,2.5,5.4c1.5,1.3,3.4,2.1,5.4,2.2V63c-1.7-0.1-3.3-0.8-4.6-1.9  c-1.3-1.2-2.1-2.8-2.1-4.4h-1.2c0,2,0.9,3.9,2.5,5.4c1.5,1.3,3.4,2.1,5.4,2.2v2.6h1.2v-2.6c2-0.1,3.8-0.9,5.2-2.2  c1.6-1.4,2.5-3.3,2.5-5.4C58.4,54.7,57.5,52.8,55.9,51.4z M49.5,49.2c-1.7-0.1-3.3-0.8-4.6-1.9c-1.3-1.2-2.1-2.8-2.1-4.4  s0.7-3.3,2.1-4.4c1.2-1.1,2.8-1.7,4.6-1.9V49.2z M55.1,61.2c-1.2,1.1-2.7,1.7-4.4,1.8V50.4c1.6,0.1,3.2,0.8,4.4,1.8  c1.3,1.2,2.1,2.8,2.1,4.4S56.4,60,55.1,61.2z"/></svg>
