<svg xmlns="http://www.w3.org/2000/svg" xmlns:xlink="http://www.w3.org/1999/xlink" version="1.1" x="0px" y="0px" viewBox="0 0 100 100" style="enable-background:new 0 0 100 100;" xml:space="preserve"><style type="text/css">
	.st0{fill:none;stroke:#000000;stroke-width:2;stroke-linecap:round;stroke-linejoin:round;stroke-miterlimit:10;}
	.st1{fill:none;stroke:#000000;stroke-width:2;stroke-linecap:round;stroke-linejoin:round;}
	.st2{fill:none;stroke:#000000;stroke-width:2;stroke-linecap:round;stroke-linejoin:round;stroke-dasharray:2.7079,5.4159;}
	.st3{fill:none;stroke:#000000;stroke-width:2;stroke-linecap:round;stroke-linejoin:round;stroke-dasharray:3.1087,4.1449;}
	.st4{fill:none;stroke:#000000;stroke-width:2;stroke-linecap:round;stroke-linejoin:round;stroke-dasharray:2.9317,3.4203;}
</style><path d="M43.396,63.524l-3.838,4.562l-2.587-2.158c-0.409-0.343-1.012-0.302-1.374,0.088L22.734,79.889  c-2.174,2.606-1.823,6.497,0.783,8.671c1.117,0.933,2.496,1.431,3.934,1.431c0.187,0,0.375-0.009,0.564-0.025  c1.638-0.148,3.12-0.925,4.206-2.229l11.312-15.1c0.319-0.426,0.249-1.026-0.16-1.367l-2.281-1.903l4.457-5.297  c1.265,0.358,4.35,0.894,8.788-0.43l4.819,5.727l-2.281,1.903c-0.409,0.341-0.479,0.941-0.16,1.367l11.345,15.141  c1.054,1.263,2.536,2.039,4.174,2.188c0.188,0.017,0.377,0.025,0.564,0.025c1.438,0,2.817-0.498,3.934-1.431  c2.606-2.174,2.958-6.064,0.749-8.71L64.653,66.016c-0.362-0.39-0.965-0.431-1.374-0.088l-2.587,2.158l-4.333-5.15  c5.116-2.028,11.681-6.488,19.158-15.846c16.98-21.253,14.478-35.673,14.363-36.276c-0.072-0.38-0.356-0.684-0.729-0.781  c-0.376-0.098-0.77,0.028-1.018,0.324l-38.007,45.17l-38.007-45.17c-0.245-0.293-0.634-0.416-1.006-0.327  c-0.37,0.092-0.656,0.387-0.736,0.76c-0.134,0.619-3.073,15.409,14.372,36.317C31.963,55.756,38.073,61.134,43.396,63.524z   M30.653,86.496c-0.711,0.853-1.711,1.377-2.817,1.477c-1.103,0.104-2.184-0.237-3.037-0.948c-1.76-1.469-1.997-4.095-0.563-5.815  l12.182-13.138l4.946,4.126L30.653,86.496z M63.832,68.071L75.979,81.17c1.468,1.76,1.231,4.386-0.528,5.854  c-0.853,0.71-1.934,1.048-3.037,0.948c-1.106-0.1-2.106-0.624-2.785-1.436l-10.744-14.34L63.832,68.071z M73.954,45.842  C60.67,62.469,50.516,62.83,47.021,62.322l41.034-48.768C88.025,18.375,86.446,30.207,73.954,45.842z M12.144,13.494L48.818,57.08  l-4.078,4.847c-5.083-2.1-11.29-7.511-18.457-16.102C13.404,30.39,12.062,18.32,12.144,13.494z"/></svg>
