<svg xmlns="http://www.w3.org/2000/svg" xmlns:xlink="http://www.w3.org/1999/xlink" version="1.1" x="0px" y="0px" viewBox="0 0 120 120">
  <g><rect x="81.1" y="10" width="3.6" height="8.6"/><rect x="88.7" y="10" width="3.6" height="8.6"/><rect x="73.5" y="10" width="3.6" height="8.6"/><rect x="50.6" y="10" width="3.6" height="8.6"/><rect x="58.2" y="10" width="3.6" height="8.6"/><rect x="65.8" y="10" width="3.6" height="8.6"/><rect x="42.9" y="10" width="3.6" height="8.6"/><rect x="35.3" y="10" width="3.6" height="8.6"/><rect x="27.6" y="10" width="3.6" height="8.6"/><rect x="10" y="35.3" width="8.6" height="3.6"/><rect x="10" y="27.6" width="8.6" height="3.6"/><rect x="10" y="42.9" width="8.6" height="3.6"/><rect x="10" y="65.8" width="8.6" height="3.6"/><rect x="10" y="58.2" width="8.6" height="3.6"/><rect x="10" y="50.6" width="8.6" height="3.6"/><rect x="10" y="73.5" width="8.6" height="3.6"/><rect x="10" y="81.1" width="8.6" height="3.6"/><rect x="10" y="88.7" width="8.6" height="3.6"/><rect x="35.3" y="101.4" width="3.6" height="8.6"/><rect x="27.6" y="101.4" width="3.6" height="8.6"/><rect x="42.9" y="101.4" width="3.6" height="8.6"/><rect x="65.8" y="101.4" width="3.6" height="8.6"/><rect x="58.2" y="101.4" width="3.6" height="8.6"/><rect x="50.6" y="101.4" width="3.6" height="8.6"/><rect x="73.5" y="101.4" width="3.6" height="8.6"/><rect x="81.1" y="101.4" width="3.6" height="8.6"/><rect x="88.7" y="101.4" width="3.6" height="8.6"/><rect x="101.4" y="81.1" width="8.6" height="3.6"/><rect x="101.4" y="88.7" width="8.6" height="3.6"/><rect x="101.4" y="73.5" width="8.6" height="3.6"/><rect x="101.4" y="50.6" width="8.6" height="3.6"/><rect x="101.4" y="58.2" width="8.6" height="3.6"/><rect x="101.4" y="65.8" width="8.6" height="3.6"/><rect x="101.4" y="42.9" width="8.6" height="3.6"/><rect x="101.4" y="35.3" width="8.6" height="3.6"/><rect x="101.4" y="27.6" width="8.6" height="3.6"/><rect x="34.2" y="34.2" width="5.4" height="5.4"/><rect x="80.4" y="34.2" width="5.4" height="5.4"/><rect x="80.4" y="80.4" width="5.4" height="5.4"/><rect x="34.2" y="80.4" width="5.4" height="5.4"/><path d="M23.1,96.9h73.8V23.1H23.1V96.9z M28.6,28.6h62.9v62.9H28.6V28.6z"/></g>
  <svg xmlns="http://www.w3.org/2000/svg" xmlns:xlink="http://www.w3.org/1999/xlink" version="1.1" x="35px" y="35px" width="50px" height="50px" viewBox="0 0 64 64" enable-background="new 0 0 64 64" xml:space="preserve"><g><path d="M54,15l-42.414,0L5,21.586V44c0,2.757,2.243,5,5,5h44c2.757,0,5-2.243,5-5V20C59,17.244,56.757,15,54,15z M57,44    c0,1.654-1.346,3-3,3H10c-1.654,0-3-1.346-3-3V22.414l5.414-5.413L54,17c1.654,0,3,1.346,3,3V44z"/><rect x="14" y="22" width="2" height="2"/><rect x="24" y="22" width="2" height="2"/><rect x="28" y="22" width="2" height="2"/><rect x="40" y="22" width="2" height="2"/><rect x="44" y="22" width="2" height="2"/><rect x="14" y="28" width="2" height="2"/><rect x="18" y="28" width="2" height="2"/><rect x="22" y="28" width="2" height="2"/><rect x="26" y="28" width="2" height="2"/><rect x="32" y="28" width="2" height="2"/><rect x="36" y="28" width="2" height="2"/><rect x="50" y="28" width="2" height="2"/><rect x="46" y="34" width="2" height="2"/><rect x="36" y="34" width="2" height="2"/><rect x="32" y="34" width="2" height="2"/><rect x="20" y="34" width="2" height="2"/><rect x="16" y="34" width="2" height="2"/><rect x="14" y="40" width="2" height="2"/><rect x="20" y="40" width="2" height="2"/><rect x="24" y="40" width="2" height="2"/><rect x="40" y="40" width="2" height="2"/><rect x="44" y="40" width="2" height="2"/></g></svg>
</svg>
