<svg xmlns="http://www.w3.org/2000/svg" xmlns:xlink="http://www.w3.org/1999/xlink" version="1.1" x="0px" y="0px" viewBox="0 0 100 100" enable-background="new 0 0 100 100" xml:space="preserve"><g display="none"><rect x="-421.258" y="-13.241" display="inline" fill="#000000" width="1566.157" height="1272.127"/></g><g><path fill="none" d="M35.818,51.637h28.363c1.104,0,2-0.896,2-2s-0.896-2-2-2H35.818c-1.104,0-2,0.896-2,2   S34.714,51.637,35.818,51.637z"/><path d="M50,80c16.542,0,30-13.458,30-30S66.542,20,50,20S20,33.458,20,50S33.458,80,50,80z M35.818,47.637h28.363   c1.104,0,2,0.896,2,2s-0.896,2-2,2H35.818c-1.104,0-2-0.896-2-2S34.714,47.637,35.818,47.637z"/></g></svg>
