<svg xmlns="http://www.w3.org/2000/svg" xmlns:xlink="http://www.w3.org/1999/xlink" version="1.1" x="0px" y="0px" viewBox="0 0 30 30" enable-background="new 0 0 30 30" xml:space="preserve"><path d="M23.2,8.5l-0.5-0.5c-0.9-0.9-2.5-0.9-3.4,0L10,17.2c-0.5,0.5-0.5,1.3,0,1.8l0.5,0.5c0.5,0.5,1.3,0.5,1.8,0l7.6-7.6l0.1-0.1  l-0.7-0.7l-7.7,7.7c-0.1,0.1-0.3,0.1-0.4,0l-0.5-0.5c-0.1-0.1-0.1-0.3,0-0.4l0.7-0.7l0,0l0.1-0.1c0,0,0,0,0,0l8.5-8.5  c0.3-0.3,0.6-0.4,1-0.4s0.8,0.2,1,0.4l0.5,0.5c0.6,0.6,0.6,1.5,0,2L12.2,21.5c-0.3,0.3-0.8,0.5-1.3,0.5c-0.5,0-1-0.2-1.3-0.5L8,19.8  c-0.7-0.7-0.7-1.9,0-2.6l9.5-9.5l0.1-0.1L16.9,7l-9.6,9.6c-1.1,1.1-1.1,2.9,0,4L9,22.2c0.5,0.5,1.3,0.8,2,0.8c0.6,0,1.1-0.2,1.6-0.5  l0,0l10.6-10.6C24.2,10.9,24.2,9.4,23.2,8.5z"/></svg>
