<svg xmlns="http://www.w3.org/2000/svg" xmlns:xlink="http://www.w3.org/1999/xlink" version="1.1" x="0px" y="0px" viewBox="0 0 120 120">
  <g><rect x="81.1" y="10" width="3.6" height="8.6"/><rect x="88.7" y="10" width="3.6" height="8.6"/><rect x="73.5" y="10" width="3.6" height="8.6"/><rect x="50.6" y="10" width="3.6" height="8.6"/><rect x="58.2" y="10" width="3.6" height="8.6"/><rect x="65.8" y="10" width="3.6" height="8.6"/><rect x="42.9" y="10" width="3.6" height="8.6"/><rect x="35.3" y="10" width="3.6" height="8.6"/><rect x="27.6" y="10" width="3.6" height="8.6"/><rect x="10" y="35.3" width="8.6" height="3.6"/><rect x="10" y="27.6" width="8.6" height="3.6"/><rect x="10" y="42.9" width="8.6" height="3.6"/><rect x="10" y="65.8" width="8.6" height="3.6"/><rect x="10" y="58.2" width="8.6" height="3.6"/><rect x="10" y="50.6" width="8.6" height="3.6"/><rect x="10" y="73.5" width="8.6" height="3.6"/><rect x="10" y="81.1" width="8.6" height="3.6"/><rect x="10" y="88.7" width="8.6" height="3.6"/><rect x="35.3" y="101.4" width="3.6" height="8.6"/><rect x="27.6" y="101.4" width="3.6" height="8.6"/><rect x="42.9" y="101.4" width="3.6" height="8.6"/><rect x="65.8" y="101.4" width="3.6" height="8.6"/><rect x="58.2" y="101.4" width="3.6" height="8.6"/><rect x="50.6" y="101.4" width="3.6" height="8.6"/><rect x="73.5" y="101.4" width="3.6" height="8.6"/><rect x="81.1" y="101.4" width="3.6" height="8.6"/><rect x="88.7" y="101.4" width="3.6" height="8.6"/><rect x="101.4" y="81.1" width="8.6" height="3.6"/><rect x="101.4" y="88.7" width="8.6" height="3.6"/><rect x="101.4" y="73.5" width="8.6" height="3.6"/><rect x="101.4" y="50.6" width="8.6" height="3.6"/><rect x="101.4" y="58.2" width="8.6" height="3.6"/><rect x="101.4" y="65.8" width="8.6" height="3.6"/><rect x="101.4" y="42.9" width="8.6" height="3.6"/><rect x="101.4" y="35.3" width="8.6" height="3.6"/><rect x="101.4" y="27.6" width="8.6" height="3.6"/><rect x="34.2" y="34.2" width="5.4" height="5.4"/><rect x="80.4" y="34.2" width="5.4" height="5.4"/><rect x="80.4" y="80.4" width="5.4" height="5.4"/><rect x="34.2" y="80.4" width="5.4" height="5.4"/><path d="M23.1,96.9h73.8V23.1H23.1V96.9z M28.6,28.6h62.9v62.9H28.6V28.6z"/></g>
  <svg xmlns="http://www.w3.org/2000/svg" xmlns:xlink="http://www.w3.org/1999/xlink" version="1.1" x="35px" y="35px" viewBox="0 0 96 96" width="50" height="50" enable-background="new 0 0 96 96" xml:space="preserve"><g><path d="M88,44.479l-0.036-0.233c-0.263-1.683-0.71-3.351-1.332-4.96l-0.085-0.221l-7.246,0.12l3.726-6.213l-0.149-0.185   c-1.077-1.333-2.3-2.555-3.633-3.632l-0.185-0.148l-6.212,3.725l0.12-7.246L72.747,25.4c-1.608-0.621-3.277-1.068-4.96-1.331   l-0.233-0.036l-3.521,6.338l-3.521-6.338l-0.233,0.036c-1.682,0.263-3.35,0.71-4.96,1.331l-0.221,0.086l0.121,7.246l-6.214-3.725   l-0.184,0.148c-1.333,1.077-2.556,2.299-3.633,3.632l-0.148,0.185l3.725,6.213l-7.246-0.12l-0.085,0.221   c-0.621,1.609-1.069,3.277-1.331,4.96l-0.037,0.233L46.403,48l-6.338,3.521l0.037,0.232c0.262,1.683,0.71,3.352,1.331,4.961   l0.085,0.22l7.246-0.12l-3.725,6.213l0.148,0.185c1.077,1.332,2.3,2.556,3.633,3.632l0.184,0.149l6.214-3.726l-0.121,7.246   l0.221,0.086c1.61,0.621,3.278,1.068,4.96,1.332l0.233,0.035l3.521-6.338l3.521,6.338l0.233-0.036   c1.679-0.262,3.347-0.709,4.96-1.331l0.221-0.086l-0.12-7.246l6.212,3.726l0.185-0.149c1.333-1.076,2.556-2.3,3.633-3.632   l0.149-0.185l-3.726-6.213l7.246,0.12l0.085-0.22c0.623-1.613,1.07-3.281,1.331-4.961L88,51.521L81.661,48L88,44.479z    M64.033,56.805c-4.855,0-8.806-3.949-8.806-8.805c0-4.854,3.95-8.805,8.806-8.805c4.854,0,8.805,3.95,8.805,8.805   C72.838,52.855,68.888,56.805,64.033,56.805z"/><path d="M35.826,43.117l4.239-2.355l-0.023-0.156c-0.176-1.125-0.476-2.241-0.892-3.318l-0.057-0.146l-4.847,0.08l2.491-4.156   l-0.1-0.124c-0.721-0.892-1.538-1.709-2.43-2.43l-0.124-0.099l-4.155,2.491l0.08-4.848l-0.146-0.057   c-1.076-0.416-2.193-0.715-3.319-0.891l-0.155-0.024l-2.355,4.24l-2.355-4.24l-0.156,0.024c-1.125,0.176-2.242,0.475-3.319,0.891   l-0.147,0.057l0.081,4.848l-4.157-2.491l-0.123,0.099c-0.892,0.721-1.709,1.538-2.43,2.43l-0.099,0.124l2.492,4.156l-4.848-0.08   l-0.057,0.146c-0.416,1.077-0.716,2.193-0.891,3.318L8,40.762l4.239,2.355L8,45.472l0.024,0.156   c0.175,1.126,0.475,2.242,0.891,3.318l0.057,0.147l4.848-0.08l-2.492,4.155l0.099,0.124c0.721,0.891,1.538,1.709,2.43,2.43   l0.123,0.1l4.157-2.492l-0.081,4.848l0.147,0.057c1.077,0.416,2.193,0.715,3.319,0.892l0.156,0.023l2.355-4.239l2.355,4.239   l0.155-0.024c1.124-0.175,2.24-0.475,3.319-0.891l0.146-0.057l-0.08-4.848l4.155,2.492l0.124-0.1   c0.892-0.721,1.709-1.539,2.43-2.43l0.1-0.124l-2.491-4.155l4.847,0.08l0.057-0.147c0.416-1.079,0.716-2.195,0.891-3.318   l0.024-0.156L35.826,43.117z M24.033,49.007c-3.248,0-5.89-2.642-5.89-5.89s2.642-5.89,5.89-5.89c3.248,0,5.89,2.642,5.89,5.89   S27.28,49.007,24.033,49.007z"/></g></svg>
</svg>
