<svg xmlns="http://www.w3.org/2000/svg" xmlns:xlink="http://www.w3.org/1999/xlink" version="1.1" x="0px" y="0px" viewBox="0 0 64 64" enable-background="new 0 0 64 64" xml:space="preserve"><g><g><path d="M54,15l-42.414,0L5,21.586V44c0,2.757,2.243,5,5,5h44c2.757,0,5-2.243,5-5V20C59,17.244,56.757,15,54,15z M57,44    c0,1.654-1.346,3-3,3H10c-1.654,0-3-1.346-3-3V22.414l5.414-5.413L54,17c1.654,0,3,1.346,3,3V44z"/><rect x="14" y="22" width="2" height="2"/><rect x="24" y="22" width="2" height="2"/><rect x="28" y="22" width="2" height="2"/><rect x="40" y="22" width="2" height="2"/><rect x="44" y="22" width="2" height="2"/><rect x="14" y="28" width="2" height="2"/><rect x="18" y="28" width="2" height="2"/><rect x="22" y="28" width="2" height="2"/><rect x="26" y="28" width="2" height="2"/><rect x="32" y="28" width="2" height="2"/><rect x="36" y="28" width="2" height="2"/><rect x="50" y="28" width="2" height="2"/><rect x="46" y="34" width="2" height="2"/><rect x="36" y="34" width="2" height="2"/><rect x="32" y="34" width="2" height="2"/><rect x="20" y="34" width="2" height="2"/><rect x="16" y="34" width="2" height="2"/><rect x="14" y="40" width="2" height="2"/><rect x="20" y="40" width="2" height="2"/><rect x="24" y="40" width="2" height="2"/><rect x="40" y="40" width="2" height="2"/><rect x="44" y="40" width="2" height="2"/></g></g></svg>
