<svg xmlns="http://www.w3.org/2000/svg" xmlns:xlink="http://www.w3.org/1999/xlink" version="1.1" x="0px" y="0px" viewBox="0 0 90 90" enable-background="new 0 0 90 90" xml:space="preserve"><g display="none"><path display="inline" d="M78.292,6.908h-2.885c-0.705,0-1.328,0.081-1.703,0.516c-0.233,0.271-0.374,0.678-0.374,1.294v6.225   c0,1.604,0.932,1.808,2.077,1.808h2.751h0.134c1.147,0,2.077-0.204,2.077-1.808V8.718C80.369,7.114,79.439,6.908,78.292,6.908z"/><polygon display="inline" points="30.595,22.447 30.595,22.447 30.595,22.447 30.595,22.447 30.595,19.843 30.595,19.843    30.595,19.843 30.595,19.843  "/><g display="inline"><path d="M82.398,82.986c0,0.922-0.34,0.762-0.758,0.762l0,0c-0.416,0-0.754,0.16-0.754-0.762v-7.658    c0-0.926,0.338-0.842,0.754-0.842l0,0c0.418,0,0.758-0.084,0.758,0.842V82.986z"/><path d="M9.404,82.986c0,0.922-0.338,0.762-0.755,0.762l0,0c-0.417,0-0.755,0.16-0.755-0.762v-7.658    c0-0.926,0.338-0.842,0.755-0.842l0,0c0.417,0,0.755-0.084,0.755,0.842V82.986z"/></g><path display="inline" d="M82.294,15.86c0,0.924-0.337,0.761-0.754,0.761l0,0c-0.418,0-0.757,0.164-0.757-0.761V8.202   c0-0.923,0.339-0.84,0.757-0.84l0,0c0.417,0,0.754-0.083,0.754,0.84V15.86z"/><path display="inline" d="M7.997,15.86c0,0.924,0.36,0.761,0.803,0.761l0,0c0.444,0,0.803,0.164,0.803-0.761V8.202   c0-0.923-0.359-0.84-0.803-0.84l0,0c-0.443,0-0.803-0.083-0.803,0.84V15.86z"/><path display="inline" d="M80.467,81.369c0,1.275-1.037,2.314-2.313,2.314H12.14c-1.278,0-2.314-1.039-2.314-2.314v-4.494   c0-1.279,1.036-2.314,2.314-2.314h66.014c1.275,0,2.313,1.035,2.313,2.314V81.369z M75.57,77.618c-0.868,0-1.573,0.704-1.573,1.573   c0,0.873,0.705,1.578,1.573,1.578c0.871,0,1.574-0.705,1.574-1.578C77.146,78.322,76.441,77.618,75.57,77.618z M14.855,77.867   c0-0.533-0.431-0.965-0.964-0.965l0,0c-0.533,0-0.964,0.432-0.964,0.965v2.506c0,0.533,0.431,0.965,0.964,0.965l0,0   c0.533,0,0.964-0.432,0.964-0.965V77.867z M17.558,77.867c0-0.533-0.434-0.965-0.965-0.965l0,0c-0.534,0-0.966,0.432-0.966,0.965   v2.506c0,0.533,0.432,0.965,0.966,0.965l0,0c0.531,0,0.965-0.432,0.965-0.965V77.867z"/><path display="inline" d="M15.042,6.789h-2.885c-0.705,0-1.328,0.081-1.703,0.516C10.22,7.576,10.08,7.983,10.08,8.599v6.225   c0,1.604,0.932,1.808,2.077,1.808h2.751h0.134c1.147,0,2.077-0.204,2.077-1.808V8.599C17.119,6.995,16.189,6.789,15.042,6.789z"/><rect x="21.16" y="48.216" display="inline" width="48.992" height="1.609"/><path display="inline" d="M18.323,9.447h53.768c0.294,0,0.531,0.233,0.531,0.521v-1.43c0-0.678,0.153-1.126,0.411-1.424h-55.66   c0.261,0.298,0.416,0.747,0.416,1.424v1.43C17.789,9.68,18.029,9.447,18.323,9.447z"/><path display="inline" d="M74.908,17.378c-1.262,0-2.286-0.225-2.286-1.99V9.967c0,0.288-0.237,0.521-0.531,0.521H34.063   c0.359,0.471,0.583,1.081,0.583,1.757v3.198h34.937c0.263,0,0.478,0.21,0.478,0.47c0,0.26-0.215,0.47-0.478,0.47H34.635   c-0.06,1.415-1.065,2.542-2.305,2.542h-1.455v1.533h-0.708v-1.533h-1.309c-1.239,0-2.244-1.128-2.304-2.542h-4.917   c-0.263,0-0.477-0.21-0.477-0.47c0-0.26,0.214-0.47,0.477-0.47h4.906v-3.198c0-0.676,0.225-1.286,0.583-1.757h-8.803   c-0.294,0-0.535-0.233-0.535-0.521v5.421c0,1.766-1.036,1.99-2.314,1.99h-3.119v56.31h6.939V53.745H15.79   c-0.619,0-0.61-0.877-0.61-1.96c0-1.084-0.009-1.96,0.61-1.96h3.505v-1.609h-3.729c-0.212,0-0.385-0.172-0.385-0.386   s0.173-0.387,0.385-0.387h3.729V20.32c0-0.656,0.417-1.189,0.932-1.189c0.516,0,0.933,0.533,0.933,1.189v27.124h48.992V20.32   c0-0.656,0.423-1.189,0.935-1.189c0.517,0,0.933,0.533,0.933,1.189v27.124h3.349c0.214,0,0.386,0.175,0.386,0.389   s-0.172,0.386-0.386,0.386H72.02v1.609h3.188c0.613,0,0.547,0.876,0.547,1.96c0,1.083,0.066,1.96-0.547,1.96H72.02v19.94h5.916   v-56.31H74.908z"/><rect x="21.16" y="53.745" display="inline" width="48.992" height="19.942"/></g><g><path fill="none" d="M35.24,40.674c-0.002,0-0.005-0.002-0.005-0.002c-0.665,0-1.203,3.47-1.202,7.751   c0,4.282,0.537,7.752,1.202,7.752c0,0,0.003,0,0.005,0c0.333-0.01,0.633-0.892,0.851-2.308c0.214-1.4,0.347-3.322,0.347-5.444   c-0.001-2.121-0.132-4.042-0.348-5.442C35.873,41.563,35.572,40.682,35.24,40.674z"/><path fill="#000000" d="M54.916,40.755c-0.055-0.05-0.111-0.083-0.168-0.083c-0.266,0-0.508,0.556-0.707,1.487   c0.064,2.038,0.1,4.13,0.1,6.264c0,2.132-0.035,4.227-0.1,6.265c0.199,0.933,0.441,1.487,0.707,1.487   c0.057,0,0.113-0.034,0.168-0.084c0.096-2.476,0.15-5.042,0.15-7.668C55.066,45.795,55.012,43.23,54.916,40.755z"/><path d="M50.775,69.642c0.844-5.663,1.309-13.2,1.309-21.219c0-8.018-0.465-15.554-1.309-21.217   c-0.234-1.585-0.48-2.891-0.727-3.964c-0.164-0.709-0.324-1.311-0.484-1.827c-0.162-0.521-0.314-0.95-0.467-1.299   c-0.195-0.456-0.379-0.775-0.545-0.987c-0.191-0.241-0.354-0.344-0.484-0.344s-0.299,0.105-0.494,0.358   c0.166,0.302,0.328,0.665,0.486,1.081c0.037,0.1,0.076,0.201,0.113,0.308c0.125,0.359,0.25,0.751,0.369,1.179   c0.16,0.582,0.316,1.23,0.469,1.936c0.164,0.773,0.32,1.618,0.469,2.537c0.047,0.288,0.092,0.583,0.141,0.886   c0.846,5.707,1.314,13.291,1.314,21.354c0,8.063-0.469,15.646-1.314,21.354c-0.049,0.304-0.094,0.597-0.141,0.888   c-0.148,0.916-0.305,1.763-0.469,2.535c-0.152,0.707-0.309,1.355-0.469,1.938c-0.119,0.426-0.244,0.819-0.369,1.176   c-0.037,0.107-0.076,0.21-0.113,0.31c-0.158,0.416-0.32,0.777-0.486,1.083c0.195,0.252,0.363,0.356,0.494,0.356   s0.293-0.101,0.484-0.347c0.166-0.211,0.35-0.528,0.545-0.983c0.152-0.349,0.305-0.781,0.467-1.302   c0.16-0.515,0.32-1.119,0.484-1.826C50.295,72.532,50.541,71.227,50.775,69.642z"/><path d="M44.609,70.824c0.063-0.375,0.125-0.771,0.187-1.183c0.1-0.672,0.193-1.369,0.282-2.088   c0.225-1.811,0.411-3.771,0.565-5.844c0.299-4.081,0.461-8.602,0.461-13.287c0-4.685-0.162-9.204-0.461-13.284   c-0.154-2.072-0.34-4.034-0.565-5.844c-0.089-0.722-0.183-1.419-0.282-2.089c-0.062-0.414-0.124-0.808-0.187-1.184   c-0.187-1.118-0.378-2.075-0.568-2.894c-0.163-0.697-0.324-1.293-0.483-1.799c-0.179-0.572-0.353-1.029-0.519-1.39   c-0.205-0.443-0.394-0.738-0.56-0.922c-0.153-0.163-0.284-0.233-0.393-0.233c-0.128,0-0.292,0.103-0.485,0.344   c0.141,0.251,0.274,0.545,0.407,0.875c0.068,0.167,0.135,0.342,0.201,0.528c0.095,0.275,0.189,0.57,0.282,0.883   c0.182,0.612,0.355,1.304,0.521,2.067c0.164,0.758,0.319,1.588,0.468,2.487c0.057,0.356,0.116,0.722,0.173,1.1   c0.141,0.96,0.274,1.975,0.396,3.036c0.18,1.58,0.336,3.262,0.463,5.028c0.299,4.085,0.457,8.606,0.457,13.289   c0,4.684-0.158,9.206-0.457,13.291c-0.127,1.765-0.283,3.447-0.463,5.027c-0.121,1.061-0.254,2.077-0.396,3.036   c-0.058,0.377-0.116,0.744-0.173,1.099c-0.149,0.901-0.305,1.729-0.468,2.488c-0.166,0.763-0.339,1.455-0.521,2.068   c-0.092,0.313-0.187,0.608-0.282,0.881c-0.065,0.189-0.132,0.363-0.201,0.529c-0.133,0.33-0.267,0.623-0.407,0.873   c0.193,0.246,0.357,0.347,0.485,0.347c0.109,0,0.24-0.072,0.393-0.236c0.166-0.18,0.354-0.478,0.56-0.92   c0.166-0.358,0.339-0.817,0.519-1.39c0.159-0.504,0.32-1.101,0.483-1.798C44.23,72.899,44.422,71.943,44.609,70.824z"/><path d="M54.041,42.159c-0.178-5.625-0.59-10.796-1.209-14.953c-0.574-3.873-1.215-6.089-1.754-7.266   c-0.203-0.443-0.395-0.738-0.561-0.922c-0.15-0.163-0.285-0.233-0.393-0.233c-0.127,0-0.291,0.103-0.484,0.344   c0.143,0.251,0.275,0.545,0.408,0.875c0.068,0.167,0.133,0.342,0.201,0.528c0.096,0.275,0.188,0.57,0.281,0.883   c0.43,1.46,0.818,3.355,1.162,5.654c0.848,5.707,1.314,13.291,1.314,21.354c0,8.063-0.467,15.646-1.314,21.354   c-0.344,2.3-0.732,4.195-1.162,5.655c-0.094,0.313-0.186,0.608-0.281,0.881c-0.068,0.189-0.133,0.363-0.201,0.529   c-0.133,0.33-0.266,0.623-0.408,0.873c0.193,0.246,0.357,0.347,0.484,0.347c0.107,0,0.242-0.072,0.393-0.236   c0.166-0.18,0.357-0.478,0.561-0.92c0.539-1.177,1.178-3.395,1.754-7.265c0.619-4.156,1.031-9.328,1.209-14.954   c0.064-2.038,0.1-4.133,0.1-6.265C54.141,46.289,54.105,44.197,54.041,42.159z"/><path d="M56.041,48.423c0-8.018-0.465-15.554-1.307-21.217c-0.99-6.647-2.166-8.421-2.705-8.421c-0.109,0-0.242,0.07-0.395,0.233   c0.232,0.4,0.453,0.901,0.67,1.514c0.541,1.546,1.029,3.743,1.445,6.537c0.572,3.848,0.967,8.56,1.166,13.686   c0.096,2.476,0.15,5.04,0.15,7.668c0,2.626-0.055,5.192-0.15,7.668c-0.199,5.127-0.594,9.837-1.166,13.687   c-0.416,2.794-0.904,4.993-1.445,6.536c-0.217,0.615-0.438,1.115-0.67,1.513c0.152,0.164,0.285,0.236,0.395,0.236   c0.539,0,1.715-1.773,2.705-8.421C55.576,63.979,56.041,56.441,56.041,48.423z"/><path d="M48.061,73.217c0.162-0.742,0.324-1.589,0.482-2.55c0.053-0.328,0.105-0.673,0.158-1.025   c0.109-0.737,0.213-1.506,0.311-2.302c0.645-5.331,0.996-11.939,0.996-18.917c0-6.976-0.352-13.585-0.996-18.914   c-0.098-0.8-0.201-1.567-0.311-2.303c-0.053-0.355-0.105-0.697-0.158-1.025c-0.158-0.963-0.32-1.809-0.482-2.552   c-0.16-0.738-0.322-1.373-0.48-1.918c-0.189-0.645-0.373-1.167-0.549-1.576c-0.195-0.454-0.377-0.777-0.543-0.991   c-0.193-0.253-0.365-0.358-0.494-0.358c-0.121,0-0.277,0.091-0.453,0.306c0.166,0.298,0.328,0.653,0.49,1.064   c0.045,0.121,0.09,0.246,0.137,0.377c0.117,0.332,0.23,0.696,0.344,1.088c0.189,0.671,0.373,1.432,0.545,2.275   c0.166,0.796,0.324,1.666,0.469,2.612c0.031,0.186,0.059,0.371,0.088,0.562c0.145,0.96,0.275,1.975,0.396,3.036   c0.18,1.58,0.336,3.262,0.463,5.028c0.299,4.085,0.457,8.606,0.457,13.289c0,4.684-0.158,9.206-0.457,13.291   c-0.127,1.765-0.283,3.447-0.463,5.027c-0.121,1.061-0.252,2.077-0.396,3.036c-0.029,0.19-0.057,0.377-0.088,0.563   c-0.145,0.943-0.303,1.816-0.469,2.611c-0.172,0.845-0.355,1.605-0.545,2.275c-0.113,0.392-0.227,0.756-0.344,1.086   c-0.047,0.134-0.092,0.257-0.137,0.38c-0.162,0.41-0.324,0.765-0.49,1.063c0.176,0.213,0.332,0.306,0.453,0.306   c0.129,0,0.301-0.104,0.494-0.356c0.166-0.216,0.348-0.539,0.543-0.994c0.176-0.41,0.359-0.931,0.549-1.576   C47.738,74.59,47.9,73.957,48.061,73.217z"/><path d="M42.544,70.876c0.063-0.392,0.13-0.804,0.195-1.234c0.095-0.649,0.187-1.326,0.274-2.021   c0.226-1.828,0.417-3.813,0.571-5.914c0.301-4.078,0.46-8.599,0.46-13.284c0-4.685-0.159-9.204-0.46-13.281   c-0.154-2.101-0.345-4.086-0.571-5.915c-0.087-0.698-0.179-1.372-0.274-2.021c-0.064-0.433-0.131-0.843-0.195-1.234   c-0.177-1.045-0.356-1.949-0.534-2.729c-0.164-0.709-0.326-1.311-0.484-1.827c-0.162-0.521-0.316-0.95-0.469-1.299   c-0.194-0.456-0.377-0.775-0.542-0.987c-0.19-0.241-0.356-0.344-0.484-0.344c-0.131,0-0.299,0.105-0.494,0.358   c0.167,0.302,0.328,0.665,0.485,1.081c0.038,0.1,0.078,0.201,0.115,0.308c0.124,0.359,0.248,0.751,0.368,1.179   c0.162,0.582,0.318,1.23,0.47,1.936c0.164,0.773,0.32,1.618,0.468,2.537c0.047,0.288,0.093,0.583,0.138,0.886   c0.143,0.96,0.275,1.975,0.394,3.036c0.181,1.58,0.336,3.262,0.466,5.028c0.299,4.085,0.457,8.606,0.457,13.289   c0,4.684-0.158,9.206-0.457,13.291c-0.13,1.765-0.286,3.447-0.466,5.027c-0.119,1.061-0.251,2.077-0.394,3.036   c-0.045,0.304-0.091,0.597-0.138,0.888c-0.148,0.916-0.304,1.763-0.468,2.535c-0.152,0.707-0.308,1.355-0.47,1.938   c-0.12,0.426-0.244,0.819-0.368,1.176c-0.037,0.107-0.077,0.21-0.115,0.31c-0.157,0.416-0.318,0.777-0.485,1.083   c0.195,0.252,0.363,0.356,0.494,0.356c0.128,0,0.294-0.101,0.484-0.347c0.165-0.211,0.349-0.528,0.542-0.983   c0.153-0.349,0.307-0.781,0.469-1.302c0.158-0.515,0.32-1.119,0.484-1.826C42.189,72.823,42.367,71.919,42.544,70.876z"/><path d="M46.029,73.338c0.188-0.853,0.375-1.847,0.559-2.997c0.035-0.226,0.072-0.459,0.109-0.699   c0.129-0.869,0.25-1.785,0.359-2.738c0.191-1.623,0.352-3.363,0.486-5.189c0.303-4.079,0.461-8.604,0.461-13.291   c0-4.687-0.158-9.21-0.461-13.289c-0.135-1.828-0.295-3.567-0.486-5.192c-0.109-0.952-0.23-1.866-0.359-2.735   c-0.037-0.24-0.074-0.474-0.109-0.702c-0.184-1.147-0.371-2.141-0.559-2.994c-0.162-0.729-0.322-1.354-0.482-1.889   c-0.192-0.646-0.377-1.164-0.555-1.566c-0.197-0.451-0.383-0.763-0.549-0.964c-0.179-0.215-0.33-0.306-0.452-0.306   c-0.107,0-0.241,0.07-0.394,0.233c0.153,0.262,0.298,0.567,0.445,0.918c0.076,0.187,0.149,0.385,0.226,0.596   c0.088,0.249,0.173,0.516,0.257,0.797c0.193,0.645,0.377,1.376,0.553,2.195c0.164,0.76,0.322,1.594,0.469,2.498   c0.059,0.34,0.111,0.688,0.166,1.047c0.141,0.96,0.273,1.975,0.395,3.036c0.178,1.58,0.334,3.262,0.465,5.028   c0.297,4.085,0.457,8.606,0.457,13.289c0,4.684-0.16,9.206-0.457,13.291c-0.131,1.765-0.287,3.447-0.465,5.027   c-0.121,1.061-0.254,2.077-0.395,3.036c-0.055,0.36-0.107,0.707-0.166,1.047c-0.147,0.904-0.305,1.74-0.469,2.499   c-0.176,0.818-0.36,1.55-0.553,2.195c-0.084,0.281-0.169,0.547-0.257,0.795c-0.076,0.214-0.15,0.41-0.226,0.597   c-0.146,0.351-0.292,0.656-0.445,0.916c0.153,0.164,0.286,0.236,0.394,0.236c0.122,0,0.273-0.093,0.452-0.306   c0.166-0.203,0.352-0.515,0.549-0.966c0.178-0.401,0.363-0.92,0.555-1.565C45.707,74.69,45.867,74.065,46.029,73.338z"/><path d="M54.748,14.721c-0.801,0-1.561,1.16-2.244,3.236c0.637,0.27,1.188,1.106,1.701,2.575c0.545,1.546,1.031,3.743,1.447,6.537   c0.85,5.707,1.314,13.291,1.314,21.354c0,8.063-0.465,15.646-1.314,21.354c-0.416,2.794-0.902,4.993-1.447,6.536   c-0.514,1.47-1.064,2.307-1.701,2.577c0.684,2.074,1.443,3.236,2.244,3.236c2.898,0,5.246-15.088,5.246-33.704   C59.994,29.81,57.646,14.721,54.748,14.721z"/><path d="M45.725,17.89c0.088-0.021,0.178-0.031,0.27-0.031c0.203,0,0.398,0.052,0.588,0.151c0.451-4.142,0.971-7.255,1.732-10.137   h-0.896C46.678,10.725,46.166,13.815,45.725,17.89z"/><path d="M37.956,18.321c-0.115,0-0.229,0.03-0.341,0.087c-0.046-0.154-0.093-0.304-0.141-0.448   c-0.679-2.076-1.438-3.239-2.238-3.239c-2.889,0-5.229,15.089-5.229,33.702c0,18.616,2.34,33.704,5.229,33.704   c0.8,0,1.56-1.162,2.238-3.238c0.048-0.146,0.095-0.296,0.141-0.449c0.114,0.058,0.227,0.086,0.343,0.086   c2.47,0,4.476-13.477,4.476-30.103C42.433,31.799,40.427,18.321,37.956,18.321z M36.091,53.867   c-0.217,1.416-0.518,2.298-0.851,2.308c-0.002,0-0.005,0-0.005,0c-0.665,0-1.202-3.47-1.202-7.752   c-0.001-4.281,0.537-7.751,1.202-7.751c0,0,0.003,0.002,0.005,0.002c0.332,0.008,0.632,0.89,0.85,2.307   c0.215,1.4,0.347,3.321,0.348,5.442C36.438,50.545,36.305,52.467,36.091,53.867z"/></g></svg>
